Coordinates
version=1
nRows=6
nColumns=36
inDegrees=yes

Units are S.I. units (second, meters, Newtons, ...)
If the header above contains a line with 'inDegrees', this indicates whether rotational values are in degrees (yes) or radians (no).

endheader
time	pelvis_tilt	pelvis_list	pelvis_rotation	pelvis_tx	pelvis_ty	pelvis_tz	hip_flexion_r	hip_adduction_r	hip_rotation_r	knee_angle_r	knee_angle_r_beta	ankle_angle_r	subtalar_angle_r	mtp_angle_r	hip_flexion_l	hip_adduction_l	hip_rotation_l	knee_angle_l	knee_angle_l_beta	ankle_angle_l	subtalar_angle_l	mtp_angle_l	lumbar_extension	lumbar_bending	lumbar_rotation	arm_flex_r	arm_add_r	arm_rot_r	elbow_flex_r	pro_sup_r	arm_flex_l	arm_add_l	arm_rot_l	elbow_flex_l	pro_sup_l
     11.21666670	    -15.20364949	      6.89467638	     -2.17398693	     -0.04241930	      0.86011693	      0.11219743	     53.58283165	      5.79414254	      5.12737776	     67.43646003	      1.17698826	     25.43298547	     -0.67026389	     -7.49999987	     69.49157677	     -3.42231508	     -0.29271234	     33.70373968	      0.58824123	      3.02152891	     -5.47966142	     -7.49999987	    -21.96806918	     -2.21102296	      1.53173712	     96.97640983	      2.54968228	     76.67665442	    123.29490157	     84.98180153	     90.10660825	     -1.37839173	     76.91133795	    122.95976479	     77.65081830
     11.23333330	    -14.88997425	      6.79353332	     -2.22091589	     -0.04060455	      0.86849395	      0.11369125	     52.42141540	      5.76174151	      5.38428339	     66.28014232	      1.15680671	     24.66750544	      0.19373984	     -7.49999987	     68.34379530	     -3.46717679	     -0.47346720	     33.99994241	      0.59341094	      3.30966786	     -5.25475757	     -7.49999987	    -21.56100193	     -2.14934175	      1.59263276	     97.02072007	      2.84106664	     76.50114031	    122.80642522	     85.10068301	     89.94492851	     -1.44426090	     75.95625986	    123.32597076	     77.67294262
     11.25000000	    -14.81232536	      6.80036157	     -2.32746301	     -0.03782649	      0.87144701	      0.11204559	     51.52870506	      5.63028715	      5.61347422	     64.96782810	      1.13390251	     24.51929078	      0.79531899	     -7.49999987	     67.69168033	     -3.51837671	     -0.68603744	     34.68213285	      0.60531741	      3.74417263	     -5.42207236	     -7.49999987	    -20.62331617	     -2.22279514	      1.63350925	     96.68119307	      2.75594749	     76.40004123	    122.74398030	     84.29674663	     89.59643940	     -1.39034989	     75.57370004	    123.51239723	     77.09884596
     11.26666670	    -14.84980820	      6.97501858	     -2.52707435	     -0.03610516	      0.88025054	      0.11221024	     50.74163229	      5.11569259	      5.55961194	     63.26407966	      1.10416649	     25.70376260	     -0.31285193	     -7.49999987	     66.78559928	     -3.48776871	     -0.79019074	     35.06476175	      0.61199554	      3.96061446	     -5.84042388	     -7.49999987	    -19.76933069	     -2.38237148	      1.88421967	     96.51101354	      2.63552114	     76.34766482	    122.44239334	     84.34560635	     89.17303355	     -1.26959320	     75.27652445	    123.76668825	     77.11167356
     11.28333330	    -14.99304078	      7.15919989	     -2.58704232	     -0.02954778	      0.88521331	      0.11116560	     49.97686290	      4.44398352	      5.34271048	     61.75792436	      1.07787912	     25.77339251	     -0.84118856	     -7.49999987	     66.04838124	     -3.34492966	     -0.92944932	     35.79060435	      0.62466389	      4.30052641	     -6.36789941	     -7.49999987	    -18.64958770	     -2.37589553	      1.91828250	     95.91032796	      2.59245649	     76.42414084	    122.38824390	     83.10752403	     88.28288382	     -1.42108220	     74.60696023	    124.08562717	     76.06114001
     11.30000000	    -15.10133334	      7.43943715	     -2.78701255	     -0.02939600	      0.89336831	      0.11139253	     49.24754583	      3.84131339	      5.40903554	     59.64471604	      1.04099668	     27.21665713	     -2.74244705	     -7.49999987	     65.24838306	     -3.29274482	     -1.26815969	     36.51498355	      0.63730669	      4.29680300	     -6.92287599	     -7.49999987	    -17.61221010	     -2.54638145	      2.06404972	     95.16030463	      2.49633939	     76.31730351	    121.92900030	     83.65831881	     87.48449911	     -1.50572086	     74.30334942	    124.06179373	     76.38436996
